<svg xmlns="http://www.w3.org/2000/svg" viewBox="0 0 52 52"><defs><style>.cls-1{fill:#2e3191;}.cls-2{fill:#fff;}</style></defs><g id="レイヤー_2" data-name="レイヤー 2"><g id="Q_A" data-name="Q&amp;A"><rect class="cls-1" width="52" height="52"/><path class="cls-2" d="M26.72,14.43l5.93,17.2a10.38,10.38,0,0,0,1.05,2.24,3.33,3.33,0,0,0,1.48,1.31v.65H29v-.65c1-.09,1.24-1,.67-2.69L28,27.69H21.56L20,32.17c-.67,1.93-.51,3,.45,3v.65h-5v-.65A3.33,3.33,0,0,0,16.76,34a26.55,26.55,0,0,0,1.41-2.92l6.6-16.62ZM25,18.11l-2.88,8.07h5.47Z"/></g></g></svg>