<svg xmlns="http://www.w3.org/2000/svg" viewBox="0 0 52 52"><defs><style>.cls-1{fill:#4d4d4d;}.cls-2{fill:#fff;}</style></defs><g id="レイヤー_2" data-name="レイヤー 2"><g id="Q_A" data-name="Q&amp;A"><rect class="cls-1" width="52" height="52"/><path class="cls-2" d="M16.44,23.35a12.94,12.94,0,0,1,1.79-7,8.62,8.62,0,0,1,7.53-4,8.56,8.56,0,0,1,7.5,4,13,13,0,0,1,1.82,7,13,13,0,0,1-1.82,7A8.3,8.3,0,0,1,27.81,34L33,37.19a4.59,4.59,0,0,0,2.37.77,8.52,8.52,0,0,0,1.79-.29v.51c-1.6,1.44-2.91,2.18-3.87,2.18a5.72,5.72,0,0,1-3.53-1.54l-5.47-4.71a8.2,8.2,0,0,1-6-3.81A12.94,12.94,0,0,1,16.44,23.35Zm15.09,0a14.65,14.65,0,0,0-1.38-6.47,5,5,0,0,0-9.1.19A14.84,14.84,0,0,0,20,23.61a14.15,14.15,0,0,0,1.34,6.47,5,5,0,0,0,9.06-.19A14.8,14.8,0,0,0,31.53,23.35Z"/></g></g></svg>