<svg xmlns="http://www.w3.org/2000/svg" viewBox="0 0 57.82 49.56"><defs><style>.cls-1{fill:#4d4d4d;}</style></defs><g id="レイヤー_2" data-name="レイヤー 2"><g id="Q_A" data-name="Q&amp;A"><polygon class="cls-1" points="35.27 40.78 34.34 41.09 21.95 45.22 14.12 47.83 16.73 39.99 20.86 27.6 21.17 26.68 21.86 25.99 27.2 20.65 20.65 20.65 20.65 0 0 0 0 49.56 41.3 49.56 41.3 34.75 35.96 40.09 35.27 40.78"/><polygon class="cls-1" points="24.78 2.42 24.78 16.52 31.33 16.52 35.1 12.74 24.78 2.42"/><rect class="cls-1" x="46.21" y="5.52" width="8.76" height="11.68" transform="translate(6.79 39.1) rotate(-45)"/><polygon class="cls-1" points="20.65 41.3 33.04 37.17 24.78 28.91 20.65 41.3"/><polygon class="cls-1" points="28.91 33.04 26.3 30.38 42.8 13.89 41.3 12.39 24.78 28.91 33.04 37.17 49.56 20.65 45.43 16.52 28.91 33.04"/></g></g></svg>