<svg xmlns="http://www.w3.org/2000/svg" viewBox="0 0 50.3 50.3"><defs><style>.cls-1{fill:#4d4d4d;}</style></defs><g id="レイヤー_2" data-name="レイヤー 2"><g id="Q_A" data-name="Q&amp;A"><path class="cls-1" d="M50.3,30.18V20.12h-11a15,15,0,0,0-1.89-3.69l7.28-7.28L41.16,5.59l-7.28,7.28A15.38,15.38,0,0,0,30.18,11V0H20.12V11a15.31,15.31,0,0,0-3.69,1.89L9.15,5.59,5.59,9.15l7.28,7.28A15.31,15.31,0,0,0,11,20.12H0V30.18H11a15.38,15.38,0,0,0,1.89,3.7L5.59,41.16l3.56,3.55,7.28-7.28a15,15,0,0,0,3.69,1.89v11H30.18v-11a15,15,0,0,0,3.7-1.89l7.28,7.28,3.55-3.55-7.28-7.28a15,15,0,0,0,1.89-3.7Zm-16.51.05a10.12,10.12,0,0,1-3.56,3.56l-.05,0a9.74,9.74,0,0,1-10.06,0l-.05,0a10.09,10.09,0,0,1-3.55-3.56l0-.05a9.74,9.74,0,0,1,0-10.06l0-.05a10.06,10.06,0,0,1,3.55-3.55l.05,0a9.74,9.74,0,0,1,10.06,0l.05,0a10.09,10.09,0,0,1,3.56,3.55s0,0,0,.05a9.74,9.74,0,0,1,0,10.06Z"/></g></g></svg>