<svg xmlns="http://www.w3.org/2000/svg" viewBox="0 0 281.7 38.78"><defs><style>.cls-1{fill:#2f74b4;}</style></defs><g id="レイヤー_2" data-name="レイヤー 2"><g id="mail"><path class="cls-1" d="M11.72,1.77a18.81,18.81,0,0,1,9,2c4.67,2.52,7.28,7.2,7.28,13,0,6.14-2.22,10.51-6.59,12.84C19.11,30.71,16.09,31.3,12,31.3H0V1.77Zm-.5,28c2.95,0,5.1-.67,6.63-2.12,2.45-2.29,3.6-5.71,3.6-10.87,0-9-3.3-13.38-10.19-13.38H6V29.72Z"/><path class="cls-1" d="M36.5,20.35c0,5.44,2.83,9.22,6.93,9.22a9.82,9.82,0,0,0,7.39-3.39l1,1.06a12.61,12.61,0,0,1-9.57,4.29c-7.43,0-11.45-3.89-11.45-11.14,0-6.77,4.29-11.1,11-11.1,3.64,0,6.66,1.22,8.54,3.47a10.5,10.5,0,0,1,2.3,7H36.5Zm10.14-2.16c-.07-4.49-2-7.32-4.82-7.32s-4.94,2.71-5.21,7.32Z"/><path class="cls-1" d="M71,13.82a9.67,9.67,0,0,0-6.4-3c-2.68,0-4.44,1.18-4.44,3s1.07,2.6,4.64,3.78c6.54,2.16,8.46,3.89,8.46,7.59,0,4.22-3.14,6.26-9.65,6.26a17.7,17.7,0,0,1-9.19-2.32l1.14-2.44A11.61,11.61,0,0,0,63,29.84c3.22,0,5-1.14,5-3.15,0-1.85-1.45-2.91-6.17-4.45s-6.54-3.38-6.54-6.65c0-4.06,3.17-6.3,8.8-6.3a14.58,14.58,0,0,1,8.09,2.21Z"/><path class="cls-1" d="M84.1,3.27A3.18,3.18,0,1,1,80.92,0,3.27,3.27,0,0,1,84.1,3.27Zm-5.94,28V9.65h5.51V31.3Z"/><path class="cls-1" d="M111.06,28.15c0,3.82-.62,5.9-2.26,7.6-2,2.08-5.33,3-10.46,3a41.93,41.93,0,0,1-7.43-.71V36a19.43,19.43,0,0,0,7.2,1.18c5,0,7.51-2.56,7.51-7.71V27.83c-1.38,2.44-3.75,3.7-6.93,3.7-6.28,0-10-4.13-10-11.1a12.22,12.22,0,0,1,1.8-6.77,9.78,9.78,0,0,1,8.16-4.37c3.18,0,5.67,1.34,7,3.82V9.65h5.44ZM94.44,20.31c0,5.91,2.1,9.57,5.51,9.57,3.26,0,5.67-4.21,5.67-9.88,0-5.36-2.3-9.13-5.59-9.13S94.44,14.57,94.44,20.31Z"/><path class="cls-1" d="M131.12,31.3V18.15a15.3,15.3,0,0,0-.38-4c-.58-2.12-2-3.3-3.91-3.3-3,0-5.28,2.83-5.28,6.61V31.3H116V9.65h5.52v2.67a8.29,8.29,0,0,1,6.7-3c5.51,0,8.39,2.87,8.39,8.42V31.3Z"/><path class="cls-1" d="M175.08,7.91a9.18,9.18,0,0,0-7.77-5c-5.63,0-9.35,5.55-9.35,14,0,7.36,4.29,12.83,10,12.83a11.67,11.67,0,0,0,8.69-3.66l1.08,1.58a13.86,13.86,0,0,1-10.35,4.13c-10.11,0-16.08-5.43-16.08-14.61,0-9.76,6-15.82,15.66-15.82a16.58,16.58,0,0,1,10.73,3.5Z"/><path class="cls-1" d="M181.9,31.3V9.65h5.36v7.24c1.15-4.61,4.18-7.48,7.93-7.48a9,9,0,0,1,1.84.2l-.58,5.11a6.71,6.71,0,0,0-1.8-.23c-4.36,0-7.39,2.24-7.39,5.47V31.3Z"/><path class="cls-1" d="M202.92,20.35c0,5.44,2.84,9.22,6.93,9.22a9.82,9.82,0,0,0,7.4-3.39l1,1.06a12.61,12.61,0,0,1-9.57,4.29c-7.43,0-11.46-3.89-11.46-11.14,0-6.77,4.29-11.1,11-11.1,3.64,0,6.67,1.22,8.55,3.47a10.44,10.44,0,0,1,2.29,7h-16.2Zm10.15-2.16c-.07-4.49-1.95-7.32-4.82-7.32s-4.94,2.71-5.21,7.32Z"/><path class="cls-1" d="M236.58,28.7a11.18,11.18,0,0,1-7.73,2.83c-4.67,0-7.47-2.28-7.47-6.18,0-4.17,3.1-6.49,9.84-7.4,2.38-.31,4.45-.67,5.33-.86a9.73,9.73,0,0,0-.39-3.08,4.5,4.5,0,0,0-4.59-3.42c-2.45,0-5.06,1.42-7.28,4l-1.42-3a19.15,19.15,0,0,1,9.23-2.48c4.06,0,6.82.91,8.35,2.72,1.15,1.38,1.61,3.11,1.61,6.34V31.3h-5.48Zm-.8-10-1.42.24c-3.9.7-3.9.7-4.82,1.18a4.4,4.4,0,0,0-2.45,4.25c0,2.67,1.76,4.33,4.55,4.33a6.79,6.79,0,0,0,4.94-1.81V18.58Z"/><path class="cls-1" d="M253.4,24.72c0,2.68.15,3.55.68,4.25s1.23,1,2.8,1a10.66,10.66,0,0,0,1.65-.12v1.42a16.68,16.68,0,0,1-3.49.31c-4.79,0-6.39-.94-7-4.17-.07-.55-.15-1.85-.15-2.64V11.22h-4.06V9.65h4.06V1.18h5.52V9.65h5.13v1.57H253.4Z"/><path class="cls-1" d="M265.5,20.35c0,5.44,2.83,9.22,6.93,9.22a9.82,9.82,0,0,0,7.39-3.39l1,1.06a12.61,12.61,0,0,1-9.57,4.29c-7.43,0-11.45-3.89-11.45-11.14,0-6.77,4.29-11.1,11-11.1,3.64,0,6.66,1.22,8.54,3.47a10.5,10.5,0,0,1,2.3,7H265.5Zm10.15-2.16c-.08-4.49-2-7.32-4.83-7.32s-4.94,2.71-5.21,7.32Z"/></g></g></svg>