<svg xmlns="http://www.w3.org/2000/svg" xmlns:xlink="http://www.w3.org/1999/xlink" viewBox="0 0 342.53 57.57"><defs><style>.cls-1{fill:#29aae1;}.cls-2{fill:#2f74b2;}.cls-3{fill:#4d99d1;}.cls-4{fill:url(#名称未設定グラデーション_17);}.cls-5{fill:url(#名称未設定グラデーション_17-2);}</style><linearGradient id="名称未設定グラデーション_17" x1="31.97" y1="48.93" x2="31.97" y2="16.22" gradientUnits="userSpaceOnUse"><stop offset="0" stop-color="#fff"/><stop offset="0" stop-color="#007abf"/><stop offset="0.44" stop-color="#007cc0"/><stop offset="0.5" stop-color="#008acd"/><stop offset="0.58" stop-color="#0095d8"/><stop offset="0.69" stop-color="#009cde"/><stop offset="1" stop-color="#009ee0"/></linearGradient><linearGradient id="名称未設定グラデーション_17-2" x1="47.48" y1="57.57" x2="47.48" y2="23.75" xlink:href="#名称未設定グラデーション_17"/></defs><g id="レイヤー_2" data-name="レイヤー 2"><g id="index"><path class="cls-1" d="M104.75,7.92h-4.23l.06,6.48c0,2.18-1.34,2.18-4.35,2.18a10,10,0,0,0-.49-1.77c.4,0,.85,0,1.25,0,1.46,0,1.69,0,1.66-.47l-.05-5a20.88,20.88,0,0,1-5.82,5.14,6.94,6.94,0,0,0-1.37-1.46,19.56,19.56,0,0,0,6.07-5.15H92.16V6.09h6.4l0-3.1,2.37.09c0,.17-.12.3-.43.33l0,2.68h4.25Z"/><path class="cls-1" d="M107,11.64V4.05l2.42.13c0,.17-.16.28-.45.32v7.14Zm9.14-8.25c0,.16-.14.26-.45.31V8.52c0,3.27-1.08,6.31-5.41,8.1a8.82,8.82,0,0,0-1.48-1.44c4.09-1.55,4.89-4.11,4.89-6.67V3.25Z"/><path class="cls-1" d="M118.62,7.32a22.59,22.59,0,0,1,3.95,1.44l-.84,1.68a23.31,23.31,0,0,0-3.94-1.52Zm.43,7.18c4.7-1.44,8.19-4,10.28-8.53.39.33,1.27,1,1.68,1.26A17.09,17.09,0,0,1,120.73,16a.38.38,0,0,1-.23.42Zm1.42-11a23.59,23.59,0,0,1,4,1.53l-1,1.63a21.14,21.14,0,0,0-3.88-1.63Zm7-.49a11.42,11.42,0,0,1,1.82,2.14l-.94.71A13.31,13.31,0,0,0,126.6,3.7Zm2.35-.87a14.06,14.06,0,0,1,1.81,2.12l-.92.7A15.38,15.38,0,0,0,129,2.85Z"/><path class="cls-1" d="M145,8.66H139.6c-.29,3.62-1.31,6-4.68,8a13.23,13.23,0,0,0-1.62-1.31c3.07-1.69,4-3.59,4.28-6.69H132V6.8h5.69c0-.56,0-2.27,0-3.9l2.54.15c0,.2-.17.31-.46.36,0,1.23,0,2.36-.06,3.39H145Z"/><path class="cls-1" d="M150.2,5.38a.41.41,0,0,1-.4.34c-.08,4.42-.5,8-2.61,10.85-.45-.29-1.19-.73-1.72-1,2.05-2.39,2.32-6.4,2.32-10.34Zm4,8a9,9,0,0,0,4-5.61,11.14,11.14,0,0,0,1.74,1.07,11.53,11.53,0,0,1-6.18,7.06,1.17,1.17,0,0,1-.35.38l-1.45-1.69.25-.33V3.32l2.4.12a.45.45,0,0,1-.43.37Z"/><path class="cls-1" d="M165.92,6.27V7.58h3.22V9.26h-3.22v1h2.9v4c0,1.46-.58,1.68-2.31,1.68a5.66,5.66,0,0,0-.45-1.54H167c.12,0,.17,0,.17-.18V11.9h-1.24v5.15h-1.75V11.9H163v3.94h-1.64V10.25h2.85v-1h-3.5V7.58h1.06c-.34-.17-.71-.35-1-.47a17.09,17.09,0,0,0,1-4.24l2,.49a.36.36,0,0,1-.37.19c0,.34-.12.69-.18,1h1V2.51l2.15.13c0,.15-.12.23-.4.27V4.59h2.76V6.27Zm-3.14,0a10.5,10.5,0,0,1-.45,1.31h1.84V6.27Zm9.06-1.74c0,.14-.12.23-.38.28v8.35h-1.73V4.41Zm1.06-1.69,2.18.09c0,.15-.13.26-.4.31V14.92c0,1.8-.68,2.14-3.44,2.14a7.92,7.92,0,0,0-.55-1.85c.81,0,1.6,0,1.86,0s.35-.07.35-.34Z"/><path class="cls-1" d="M181.67,3.3c0,.14-.19.2-.44.18a28.25,28.25,0,0,1-1.35,3l.6.17c0,.14-.16.23-.4.27V17.06h-1.84V9.16A18.73,18.73,0,0,1,176.76,11a13.5,13.5,0,0,0-.92-1.87,18.89,18.89,0,0,0,3.73-6.56Zm9,3.51H186.3V8.45h4v1.68h-4v1.75h4.24v1.71H186.3v3.46h-1.89V6.81h-.8a17.45,17.45,0,0,1-2,3.21,10.35,10.35,0,0,0-1.39-1.33,17,17,0,0,0,3-6l2.21.66a.41.41,0,0,1-.44.19c-.17.5-.35,1-.57,1.54h6.32Z"/><path class="cls-1" d="M197.9,3a.54.54,0,0,1-.48.32c-.07.56-.23,1.31-.32,1.76a17.78,17.78,0,0,0,3.79-.71l.23,1.83a31.68,31.68,0,0,1-4.38.67,25.45,25.45,0,0,1-3,7.36l-1.91-.68a19.8,19.8,0,0,0,2.82-6.64H192V5.18h1.71l1.27,0a21.85,21.85,0,0,0,.32-2.37Zm3.93,6.72c0,.92.06,1.8.14,2.69A16.92,16.92,0,0,1,205,14l-.91,1.8A14.6,14.6,0,0,0,202,14.46a2.49,2.49,0,0,1-.11.63c-.32,1-1.14,1.73-3,1.73-1.4,0-3.11-.68-3.11-2.5,0-1.59,1.59-2.5,3.11-2.5a6.29,6.29,0,0,1,1.2.13c0-.74-.06-1.51-.06-2Zm-1.65,3.91a4,4,0,0,0-1.35-.25c-.76,0-1.41.34-1.42.93s.57.92,1.45.92,1.32-.37,1.32-1.12Zm4.61-5a25.55,25.55,0,0,0-5.38.63l-.26-1.68a23.9,23.9,0,0,1,5.52-.77Z"/><path class="cls-1" d="M209.9,6.06a.44.44,0,0,1-.4.26c-.19,2.14-.36,3.38-.64,3.78h0a9.9,9.9,0,0,1,5-1.58c2.25,0,3.94,1.25,3.93,3.55,0,2.94-2.24,4.38-8.4,4.62a10.22,10.22,0,0,0-.71-1.79c5.13-.2,7-1,7-2.79,0-1.09-.78-1.83-2.14-1.83-1.91,0-4.28.93-5.18,2.34l-1.79-.8c.33-.24.88-3.23.91-6.05Zm-.31-3.25A27.22,27.22,0,0,1,215.52,4l-.63,1.9A26.11,26.11,0,0,0,209,4.61Z"/><path class="cls-1" d="M219.7,9.65V7.85h12.18v1.8h-4.67l.31.09c0,.11-.16.2-.36.2a8.72,8.72,0,0,1-4.62,6.72A12.22,12.22,0,0,0,221,15.38a6.76,6.76,0,0,0,4.07-5.73Zm10.65-4.32a8,8,0,0,0-.77-1.21v1.4h-8.46V3.72h8.14a5.79,5.79,0,0,0-.56-.61l.88-.64a11.76,11.76,0,0,1,1.7,2.19Zm2.16-.41a12,12,0,0,0-1.63-2.18l.83-.63a13.15,13.15,0,0,1,1.71,2.16Z"/><path class="cls-1" d="M247.21,8.22h-3V8.8a7.86,7.86,0,0,1-4.86,7.82,10.68,10.68,0,0,0-1.41-1.35c3.54-1.58,4.3-3.93,4.3-6.45v-.6h-3.78v3.39h-1.93V8.22h-2.66V6.37h2.66V3.19l2.39.16c0,.15-.15.33-.46.38V6.37h3.78V3l2.42.14c0,.16-.16.29-.45.36V6.37h3ZM245,3.55A9,9,0,0,1,246.6,5.4l-.81.66a10.66,10.66,0,0,0-1.54-1.91Zm1.57-1.31a9.32,9.32,0,0,1,1.62,1.88l-.78.63a10.76,10.76,0,0,0-1.61-1.9Z"/><path class="cls-1" d="M261.1,4.42a.51.51,0,0,1-.5.17,39.39,39.39,0,0,1-4.16,3.5c.17.05.34.13.5.17a.49.49,0,0,1-.45.29V16.6h-2.05V9.36a46.21,46.21,0,0,1-5.12,2.88,7.16,7.16,0,0,0-1.17-1.5,34.94,34.94,0,0,0,11-7.73Z"/><path class="cls-1" d="M263.06,4a20.24,20.24,0,0,1,4.52,2l-1,1.76a22.28,22.28,0,0,0-4.41-2.11Zm-.52,10.43c5.19-1.6,8.77-4.62,10.55-8.86a12,12,0,0,0,1.81,1.14A17.82,17.82,0,0,1,264.2,16a.53.53,0,0,1-.26.4Z"/><path class="cls-1" d="M287.26,6.18a.81.81,0,0,1-.34.29c-1.74,5-4.14,8.08-8.3,10.18a7.21,7.21,0,0,0-1.45-1.48,13.09,13.09,0,0,0,7.26-8H279.9a16.19,16.19,0,0,1-3.29,3.53A11,11,0,0,0,275,9.46a15.18,15.18,0,0,0,4.84-6.53l2.45.57a.51.51,0,0,1-.51.28c-.25.55-.56,1.09-.82,1.6h4.39l.28-.14Z"/><path class="cls-1" d="M289.2,11.64V4.05l2.41.13c0,.17-.15.28-.44.32v7.14Zm9.13-8.25c0,.16-.13.26-.44.31V8.52c0,3.27-1.08,6.31-5.41,8.1A8.82,8.82,0,0,0,291,15.18c4.08-1.55,4.88-4.11,4.88-6.67V3.25Z"/><path class="cls-1" d="M301.59,5.07h10.53V6.92H307.8v6.3h5.4v1.84H300.51V13.22h5.29V6.92h-4.21Z"/><path class="cls-1" d="M327.4,4.42a.51.51,0,0,1-.5.17,39.39,39.39,0,0,1-4.16,3.5c.17.05.34.13.5.17a.49.49,0,0,1-.45.29V16.6h-2.05V9.36a46.21,46.21,0,0,1-5.12,2.88,7.16,7.16,0,0,0-1.17-1.5,34.94,34.94,0,0,0,11-7.73Z"/><path class="cls-1" d="M337.39,11.64a43.12,43.12,0,0,0-4.82-2.31v7.21H330.5V3l2.53.12c0,.19-.14.34-.46.39V7.85l.38-.53a47.6,47.6,0,0,1,5.53,2.42Z"/><path class="cls-2" d="M104.26,23.94a16.69,16.69,0,0,1,7.91,1.74c4.12,2.23,6.42,6.36,6.42,11.43,0,5.42-2,9.28-5.81,11.33A17.85,17.85,0,0,1,104.53,50H93.92V23.94Zm-.44,24.67c2.6,0,4.5-.59,5.85-1.87,2.16-2,3.17-5,3.17-9.59,0-8-2.9-11.82-9-11.82H99.19V48.61Z"/><path class="cls-2" d="M126.13,40.34c0,4.8,2.5,8.13,6.11,8.13a8.66,8.66,0,0,0,6.53-3l.91.93a11.13,11.13,0,0,1-8.45,3.79c-6.56,0-10.11-3.44-10.11-9.83,0-6,3.79-9.8,9.74-9.8a9.55,9.55,0,0,1,7.54,3.06,9.22,9.22,0,0,1,2,6.18H126.13Zm9-1.91c-.06-4-1.72-6.46-4.26-6.46s-4.36,2.4-4.59,6.46Z"/><path class="cls-2" d="M156.58,34.58A8.52,8.52,0,0,0,150.93,32c-2.36,0-3.92,1-3.92,2.68s1,2.29,4.09,3.33c5.78,1.91,7.47,3.44,7.47,6.71,0,3.71-2.77,5.52-8.52,5.52a15.66,15.66,0,0,1-8.11-2.05L143,46a10.24,10.24,0,0,0,6.59,2.71c2.84,0,4.43-1,4.43-2.78s-1.29-2.57-5.45-3.93-5.78-3-5.78-5.87c0-3.58,2.81-5.56,7.78-5.56a12.81,12.81,0,0,1,7.13,2Z"/><path class="cls-2" d="M168.14,25.26a2.81,2.81,0,1,1-2.81-2.88A2.89,2.89,0,0,1,168.14,25.26ZM162.9,50V30.89h4.86V50Z"/><path class="cls-2" d="M191.93,47.22c0,3.37-.54,5.21-2,6.71-1.76,1.84-4.7,2.67-9.23,2.67a36.48,36.48,0,0,1-6.56-.62V54.14a17.2,17.2,0,0,0,6.36,1c4.42,0,6.62-2.26,6.62-6.81V47A6.55,6.55,0,0,1,181,50.21c-5.54,0-8.82-3.65-8.82-9.8a10.8,10.8,0,0,1,1.59-6,8.64,8.64,0,0,1,7.2-3.86A6.54,6.54,0,0,1,187.13,34V30.89h4.8Zm-14.67-6.91c0,5.21,1.86,8.44,4.87,8.44s5-3.72,5-8.72c0-4.72-2-8.06-4.93-8.06S177.26,35.24,177.26,40.31Z"/><path class="cls-2" d="M209.64,50V38.4a13.31,13.31,0,0,0-.34-3.51A3.47,3.47,0,0,0,205.85,32c-2.67,0-4.66,2.5-4.66,5.84V50h-4.87V30.89h4.87v2.37a7.33,7.33,0,0,1,5.91-2.61c4.87,0,7.41,2.54,7.41,7.44V50Z"/><path class="cls-2" d="M248.44,29.36A8.12,8.12,0,0,0,241.58,25c-5,0-8.25,4.9-8.25,12.34,0,6.49,3.79,11.32,8.86,11.32a10.29,10.29,0,0,0,7.67-3.23l.94,1.39a12.16,12.16,0,0,1-9.12,3.65c-8.92,0-14.2-4.8-14.2-12.89,0-8.62,5.31-14,13.83-14a14.66,14.66,0,0,1,9.46,3.09Z"/><path class="cls-2" d="M254.45,50V30.89h4.73v6.4c1-4.07,3.69-6.61,7-6.61a7.58,7.58,0,0,1,1.62.18l-.5,4.52a5.67,5.67,0,0,0-1.59-.21c-3.86,0-6.53,2-6.53,4.83V50Z"/><path class="cls-2" d="M273,40.34c0,4.8,2.5,8.13,6.11,8.13a8.65,8.65,0,0,0,6.53-3l.91.93a11.13,11.13,0,0,1-8.45,3.79c-6.56,0-10.1-3.44-10.1-9.83,0-6,3.78-9.8,9.73-9.8a9.55,9.55,0,0,1,7.54,3.06,9.22,9.22,0,0,1,2,6.18H273ZM282,38.43c-.06-4-1.72-6.46-4.25-6.46s-4.36,2.4-4.6,6.46Z"/><path class="cls-2" d="M302.72,47.71a9.92,9.92,0,0,1-6.83,2.5c-4.13,0-6.59-2-6.59-5.45,0-3.69,2.73-5.74,8.68-6.54,2.1-.27,3.92-.59,4.7-.76a8.36,8.36,0,0,0-.34-2.71,4,4,0,0,0-4-3c-2.17,0-4.46,1.25-6.42,3.51l-1.25-2.61a16.85,16.85,0,0,1,8.14-2.19c3.58,0,6,.8,7.37,2.4,1,1.22,1.42,2.74,1.42,5.59V50h-4.83ZM302,38.92l-1.26.21c-3.44.62-3.44.62-4.25,1a3.9,3.9,0,0,0-2.17,3.75c0,2.37,1.56,3.82,4,3.82a6,6,0,0,0,4.37-1.59V38.78Z"/><path class="cls-2" d="M317.55,44.2c0,2.36.14,3.13.61,3.75s1.08.84,2.47.84a9.39,9.39,0,0,0,1.45-.11v1.25a14.41,14.41,0,0,1-3.07.28c-4.23,0-5.65-.83-6.19-3.68a22.17,22.17,0,0,1-.13-2.33V32.28H309.1V30.89h3.59V23.42h4.86v7.47h4.53v1.39h-4.53Z"/><path class="cls-2" d="M328.23,40.34c0,4.8,2.5,8.13,6.12,8.13a8.63,8.63,0,0,0,6.52-3l.92.93a11.14,11.14,0,0,1-8.45,3.79c-6.56,0-10.11-3.44-10.11-9.83,0-6,3.79-9.8,9.73-9.8a9.55,9.55,0,0,1,7.54,3.06,9.27,9.27,0,0,1,2,6.18h-14.3Zm9-1.91c-.07-4-1.73-6.46-4.26-6.46s-4.36,2.4-4.6,6.46Z"/><path class="cls-3" d="M0,32.13l.65-3a10,10,0,0,1,.77-2.3A4.23,4.23,0,0,1,2.6,25.37a4.33,4.33,0,0,1,3.63-.8,4.73,4.73,0,0,1,1.69.72A4.13,4.13,0,0,1,9.14,26.6a4.71,4.71,0,0,1,.61,1.83,6.47,6.47,0,0,1-.12,2.29L8.9,34.05Zm8.58.28.34-1.6A4.31,4.31,0,0,0,9,29.34,3.25,3.25,0,0,0,8.5,28a3.52,3.52,0,0,0-1-1,4.58,4.58,0,0,0-1.59-.65,4.46,4.46,0,0,0-1.58,0,3.56,3.56,0,0,0-2.37,1.48,3.87,3.87,0,0,0-.59,1.41L1,30.77Z"/><path class="cls-3" d="M13.17,21.76a3.31,3.31,0,0,1-.91,1,3.21,3.21,0,0,1-1.17.58,3.38,3.38,0,0,1-1.31.09A3.32,3.32,0,0,1,8.51,23a4.9,4.9,0,0,1-1.22-1,3.53,3.53,0,0,1-.71-1.24A3.24,3.24,0,0,1,6.88,18a3.21,3.21,0,0,1,1.91-1.5,2.87,2.87,0,0,1,1.13-.07,2.72,2.72,0,0,1,1.08.37L8.37,21.35a4.44,4.44,0,0,0,1.22.52,3.27,3.27,0,0,0,1.15.09,2.42,2.42,0,0,0,1-.33,2,2,0,0,0,.71-.74,2.53,2.53,0,0,0,.31-.83,3.13,3.13,0,0,0,.05-.86,2.54,2.54,0,0,0-.18-.78,2,2,0,0,0-.38-.62l.36-.26a3.37,3.37,0,0,1,.63.94,4.37,4.37,0,0,1,.31,1.11,3.89,3.89,0,0,1,0,1.13A3.06,3.06,0,0,1,13.17,21.76ZM9.64,18a2,2,0,0,0-.71-.26,1.87,1.87,0,0,0-.71,0,1.8,1.8,0,0,0-.63.29,2.07,2.07,0,0,0-.48.54,1.55,1.55,0,0,0-.18.6A1.64,1.64,0,0,0,7,19.9a2.16,2.16,0,0,0,.32.62,2.35,2.35,0,0,0,.55.54Z"/><path class="cls-3" d="M17,15.9a1.56,1.56,0,0,0,.3-.44A1.59,1.59,0,0,0,17.4,15a1.21,1.21,0,0,0,0-.43,1,1,0,0,0-.21-.35,1.07,1.07,0,0,0-.52-.28,1.74,1.74,0,0,0-.6,0,3.63,3.63,0,0,0-.66.18l-.71.27-.72.24a2.39,2.39,0,0,1-.74.12,2.14,2.14,0,0,1-.71-.1,1.9,1.9,0,0,1-1.1-1.12,1.94,1.94,0,0,1-.1-.8,2.41,2.41,0,0,1,.23-.83,3,3,0,0,1,.56-.8,4.79,4.79,0,0,1,.48-.44,2.22,2.22,0,0,1,.55-.29,2,2,0,0,1,.68-.14,4.75,4.75,0,0,1,.9,0l0,.7a3,3,0,0,0-1.31-.05,1.87,1.87,0,0,0-.95.53,2.15,2.15,0,0,0-.33.45,1.35,1.35,0,0,0-.15.44.92.92,0,0,0,0,.41.69.69,0,0,0,.19.33.84.84,0,0,0,.51.26,1.65,1.65,0,0,0,.62,0,4.08,4.08,0,0,0,.7-.23l.75-.31a7.31,7.31,0,0,1,.78-.29,3,3,0,0,1,.76-.16,2,2,0,0,1,.74.07,1.57,1.57,0,0,1,.67.42,2.23,2.23,0,0,1,.48.71,2,2,0,0,1,.14.84,2.62,2.62,0,0,1-.26.92,3.59,3.59,0,0,1-.7,1,4.9,4.9,0,0,1-.47.43,2.6,2.6,0,0,1-.59.34,3.12,3.12,0,0,1-.73.2,4.16,4.16,0,0,1-.93,0l0-.78a4.58,4.58,0,0,0,.77.08,2.4,2.4,0,0,0,.62-.05,1.81,1.81,0,0,0,.52-.2A2,2,0,0,0,17,15.9Z"/><path class="cls-3" d="M14.68,5.28a1,1,0,0,1-.13-.3.8.8,0,0,1,0-.31,1,1,0,0,1,.1-.29.77.77,0,0,1,.21-.23A.86.86,0,0,1,15.14,4a1,1,0,0,1,.3,0,.86.86,0,0,1,.28.11.8.8,0,0,1,.23.22.78.78,0,0,1,.14.29,1.06,1.06,0,0,1,0,.31,1,1,0,0,1-.1.29,1.21,1.21,0,0,1-.21.24,1.08,1.08,0,0,1-.29.13.76.76,0,0,1-.3,0,.79.79,0,0,1-.29-.11A.76.76,0,0,1,14.68,5.28ZM16.5,7.64l.55-.91.33-.24,4.19,5.87-1.11.83Z"/><path class="cls-3" d="M26.39,2.05l.25.54-1.18.59a2.52,2.52,0,0,1,.56.44,2.33,2.33,0,0,1,.42.6,2.08,2.08,0,0,1,.21,1,2.31,2.31,0,0,1-.27,1,3.05,3.05,0,0,1-.7.9,4.63,4.63,0,0,1-1.09.74,2.85,2.85,0,0,1-.51.2,1.83,1.83,0,0,1-.48.11,1.76,1.76,0,0,0-.13.5.86.86,0,0,0,.06.46.38.38,0,0,0,.35.21,1.42,1.42,0,0,0,.65-.16l2.36-1a4.6,4.6,0,0,1,1-.32,2,2,0,0,1,.73,0,1.14,1.14,0,0,1,.52.28,1.64,1.64,0,0,1,.35.52,2.23,2.23,0,0,1,.22,1.15,2.58,2.58,0,0,1-.36,1.13A4.18,4.18,0,0,1,28.39,12a6.91,6.91,0,0,1-1.47,1,9.84,9.84,0,0,1-1.4.57,4.14,4.14,0,0,1-1.09.21,1.77,1.77,0,0,1-.77-.13.9.9,0,0,1-.44-.46,1.19,1.19,0,0,1-.11-.57,2.34,2.34,0,0,1,.12-.62,4.38,4.38,0,0,1,.24-.66l.3-.63a1.7,1.7,0,0,1-.39,0,1.21,1.21,0,0,1-.34,0,.75.75,0,0,1-.27-.13.55.55,0,0,1-.18-.22,1.08,1.08,0,0,1-.09-.46,1.79,1.79,0,0,1,.09-.54,3.68,3.68,0,0,1,.24-.55,2.52,2.52,0,0,1,.37-.49A2.63,2.63,0,0,1,21.85,8,2,2,0,0,1,21,7a2.14,2.14,0,0,1-.21-1A2.62,2.62,0,0,1,21,5a3.3,3.3,0,0,1,.64-.93,3.63,3.63,0,0,1,1-.71l.57-.24L23.76,3l.48-.06a1.31,1.31,0,0,1,.37,0Zm-1.75,5.4a1.35,1.35,0,0,0,.45-.38,1.66,1.66,0,0,0,.27-.55,1.7,1.7,0,0,0,.06-.64,1.89,1.89,0,0,0-.17-.68,3.37,3.37,0,0,0-.54-.81A2.57,2.57,0,0,0,24,3.85a1.59,1.59,0,0,0-.72-.22,1.31,1.31,0,0,0-.68.12,1.29,1.29,0,0,0-.48.4,1.22,1.22,0,0,0-.2.56,1.68,1.68,0,0,0,0,.66,3,3,0,0,0,.25.71,3.14,3.14,0,0,0,.48.77,2.39,2.39,0,0,0,.6.51,1.46,1.46,0,0,0,.65.21A1.26,1.26,0,0,0,24.64,7.45Zm-.44,3.13a1.3,1.3,0,0,0-.13.36,1.5,1.5,0,0,0-.05.37,1,1,0,0,0,0,.34,1.32,1.32,0,0,0,.09.3.75.75,0,0,0,.34.34,1.41,1.41,0,0,0,.6.13,3.26,3.26,0,0,0,.85-.13A5.62,5.62,0,0,0,27,11.88a6.46,6.46,0,0,0,1.06-.66,3.94,3.94,0,0,0,.72-.67,2.16,2.16,0,0,0,.35-.64.71.71,0,0,0,0-.5.73.73,0,0,0-.28-.32.85.85,0,0,0-.43-.1,2,2,0,0,0-.56.09,3.91,3.91,0,0,0-.67.27c-.3.14-.61.29-.92.42l-.88.37c-.28.12-.52.21-.73.28Z"/><path class="cls-3" d="M29.68.65l.38-.08L30.33,2A4.75,4.75,0,0,1,31.41.66,2.9,2.9,0,0,1,32.69,0a1.38,1.38,0,0,1,.7,0A1.76,1.76,0,0,1,34,.4a2.25,2.25,0,0,1,.49.6,2.63,2.63,0,0,1,.29.8l.94,5-1.35.28-.9-4.8a2.35,2.35,0,0,0-.19-.6,1.42,1.42,0,0,0-.31-.4,1.2,1.2,0,0,0-.39-.2,1.14,1.14,0,0,0-.45,0,1.33,1.33,0,0,0-.44.17,2.42,2.42,0,0,0-.45.31,3.45,3.45,0,0,0-.44.42,3.92,3.92,0,0,0-.39.5l1,5.21L30.05,8,28.78,1.24Z"/><path class="cls-3" d="M45.68,2.42a3.41,3.41,0,0,0-.1-.6,1.86,1.86,0,0,0-.24-.56,1.46,1.46,0,0,0-.4-.46,1.36,1.36,0,0,0-.6-.25,1.77,1.77,0,0,0-.86.06,1.93,1.93,0,0,0-.7.42,2.51,2.51,0,0,0-.52.71,3.19,3.19,0,0,0-.29.92,4.47,4.47,0,0,0,0,1.31,3.29,3.29,0,0,0,.3,1.14,2.43,2.43,0,0,0,.62.85,1.9,1.9,0,0,0,.93.43,2.18,2.18,0,0,0,.85,0,2,2,0,0,0,.67-.32,2.81,2.81,0,0,0,.55-.54,6.74,6.74,0,0,0,.46-.68l.38.24A5.94,5.94,0,0,1,46,6.18a3.54,3.54,0,0,1-.84.77,2.85,2.85,0,0,1-1,.41,3,3,0,0,1-1.11,0,2.85,2.85,0,0,1-1.21-.48A3.13,3.13,0,0,1,41,6a3.78,3.78,0,0,1-.5-1.22,3.92,3.92,0,0,1,0-1.41,4.14,4.14,0,0,1,.3-1,4.66,4.66,0,0,1,.52-.87A4,4,0,0,1,42,.78,3.59,3.59,0,0,1,42.77.3a3.15,3.15,0,0,1,.91-.25,3.09,3.09,0,0,1,1,0,3.19,3.19,0,0,1,.76.23A2.44,2.44,0,0,1,46,.68a2.15,2.15,0,0,1,.48.52,1.9,1.9,0,0,1,.27.64Z"/><path class="cls-3" d="M51.36,2l.19.08-.41,1.42a3,3,0,0,1,.61-.38,2.61,2.61,0,0,1,.67-.21,2.66,2.66,0,0,1,.69,0,2,2,0,0,1,.65.16,2.14,2.14,0,0,1,.52.32,1.77,1.77,0,0,1,.4.46l-.87.93a1.53,1.53,0,0,0-.16-.34,1.88,1.88,0,0,0-.22-.26A1.27,1.27,0,0,0,53.16,4a2.64,2.64,0,0,0-.29-.15,1.67,1.67,0,0,0-.49-.12,1.83,1.83,0,0,0-.52,0,1.88,1.88,0,0,0-.53.19,2.49,2.49,0,0,0-.52.37l-2,4.6-1.26-.54L50.31,2Z"/><path class="cls-3" d="M54.8,12.55a3.21,3.21,0,0,1-.87-1,3.55,3.55,0,0,1-.39-1.26,3.57,3.57,0,0,1,.71-2.56,5.27,5.27,0,0,1,1.16-1.11A4,4,0,0,1,56.72,6a3.23,3.23,0,0,1,1.35,0,3.3,3.3,0,0,1,2.1,1.6,3,3,0,0,1,.36,1.14,2.8,2.8,0,0,1-.09,1.15A2.93,2.93,0,0,1,59.93,11l-4-3.21a5,5,0,0,0-.67,1.17A3.31,3.31,0,0,0,55,10.07a2.4,2.4,0,0,0,.17,1,2.1,2.1,0,0,0,.62.81,2.55,2.55,0,0,0,.76.41,3,3,0,0,0,.83.15,3,3,0,0,0,.79-.08,2.06,2.06,0,0,0,.65-.31l.21.39A3.46,3.46,0,0,1,58,13a3.93,3.93,0,0,1-1.12.19,4,4,0,0,1-1.1-.15A2.91,2.91,0,0,1,54.8,12.55Zm4.12-3.12a2,2,0,0,0,.36-.68A2,2,0,0,0,59.35,8a1.93,1.93,0,0,0-.2-.67,1.63,1.63,0,0,0-.46-.55,1.27,1.27,0,0,0-.55-.26,1.72,1.72,0,0,0-.64,0,2.23,2.23,0,0,0-.66.25,2.53,2.53,0,0,0-.6.49Z"/><path class="cls-3" d="M60.8,19.15a1.4,1.4,0,0,1,.05-.61,1,1,0,0,1,.37-.5l-.59-.16a3.19,3.19,0,0,1-.59-.21,2.54,2.54,0,0,1-.56-.34,2.73,2.73,0,0,1-.53-.58,1.92,1.92,0,0,1-.31-.69,1.57,1.57,0,0,1,0-.68,1.75,1.75,0,0,1,.26-.62,2,2,0,0,1,1.26-.85,2,2,0,0,1,.81,0,3.42,3.42,0,0,1,.83.29,5.3,5.3,0,0,1,.82.48,8.78,8.78,0,0,1,.8.6l.75.63.36-.26a4.58,4.58,0,0,0,.63-.54,1.42,1.42,0,0,0,.31-.49.76.76,0,0,0,0-.47,1.27,1.27,0,0,0-.23-.49,1.18,1.18,0,0,0-.4-.37,1.48,1.48,0,0,0-.5-.17,1.7,1.7,0,0,0-.55,0,1.84,1.84,0,0,0-.55.21l-.72-1a1.75,1.75,0,0,1,.84-.22,2.16,2.16,0,0,1,.86.17,3,3,0,0,1,.8.5,3.86,3.86,0,0,1,.69.76,4.74,4.74,0,0,1,.55,1,2,2,0,0,1,.11.84,1.37,1.37,0,0,1-.25.67,2.7,2.7,0,0,1-.56.56L62,19.18a1,1,0,0,0-.37.5,1.4,1.4,0,0,0,0,.61Zm3-3-.53-.38c-.19-.12-.38-.24-.58-.35s-.41-.2-.61-.28a2.78,2.78,0,0,0-.59-.17,1.72,1.72,0,0,0-.55,0,1,1,0,0,0-.46.18,1.32,1.32,0,0,0-.34.37,1.35,1.35,0,0,0-.19.45,1,1,0,0,0,0,.46,1,1,0,0,0,.15.41,1.57,1.57,0,0,0,.31.32,2,2,0,0,0,.37.24l.42.18.47.15Z"/><path class="cls-3" d="M71.25,19.17l.14.37-2.23.91.56,1.46-.56.22-.56-1.45L64,22.56a.74.74,0,0,0-.25.17.81.81,0,0,0-.17.24.82.82,0,0,0-.07.28.8.8,0,0,0,.06.3.71.71,0,0,0,.26.35,1.47,1.47,0,0,0,.39.21l-.1.41a2,2,0,0,1-1.65-1.35,1.6,1.6,0,0,1-.11-.62,1.23,1.23,0,0,1,.17-.53,1.43,1.43,0,0,1,.39-.43,2.52,2.52,0,0,1,.59-.32l4.61-1.89-.43-1.13.24-.1.75,1,1.87-.76Z"/><path class="cls-3" d="M63.85,29.13A3.45,3.45,0,0,1,64,27.77a3.61,3.61,0,0,1,.6-1.19,3.67,3.67,0,0,1,1-.87,3.35,3.35,0,0,1,1.28-.43,4.6,4.6,0,0,1,1.58,0,3.49,3.49,0,0,1,1.31.54,3.22,3.22,0,0,1,.94,1A3.5,3.5,0,0,1,71,29.5a3.17,3.17,0,0,1-.54,1.07,3.05,3.05,0,0,1-.87.77,3,3,0,0,1-1.09.37L68,26.5a4.23,4.23,0,0,0-1.28.34,3.52,3.52,0,0,0-1,.64,2.63,2.63,0,0,0-.59.87,2.06,2.06,0,0,0-.14,1,2.76,2.76,0,0,0,.24.85,2.89,2.89,0,0,0,.48.7,2.27,2.27,0,0,0,.61.51,1.77,1.77,0,0,0,.67.25l-.13.43a3,3,0,0,1-1.07-.36,4,4,0,0,1-.91-.67,3.47,3.47,0,0,1-.66-.91A2.81,2.81,0,0,1,63.85,29.13Zm5.05.76a2,2,0,0,0,.72-.23,1.9,1.9,0,0,0,.55-.46,2.22,2.22,0,0,0,.33-.63,1.74,1.74,0,0,0,.06-.72,1.24,1.24,0,0,0-.21-.58,1.6,1.6,0,0,0-.44-.46,2.22,2.22,0,0,0-.64-.3,2.06,2.06,0,0,0-.75-.08Z"/><path class="cls-4" d="M18.82,48.93V16.22h11a26,26,0,0,1,5.66.47A10.64,10.64,0,0,1,40.11,19a13.28,13.28,0,0,1,3.76,5.59,22.55,22.55,0,0,1,1.25,7.78,23.23,23.23,0,0,1-.85,6.6,15.93,15.93,0,0,1-2.17,4.76,11.55,11.55,0,0,1-2.89,3,11.68,11.68,0,0,1-3.8,1.64,21.2,21.2,0,0,1-5.11.56ZM23,45.07h6.79a16.07,16.07,0,0,0,4.94-.61,7,7,0,0,0,2.85-1.69A10.46,10.46,0,0,0,40,38.63a21,21,0,0,0,.83-6.3q0-5.13-1.64-7.89a8.33,8.33,0,0,0-4-3.69,15.94,15.94,0,0,0-5.45-.67H23Z"/><path class="cls-5" d="M57.33,45.53l4.21,1.09a14.65,14.65,0,0,1-4.75,8.14,12.92,12.92,0,0,1-8.41,2.81A14.81,14.81,0,0,1,40,55.43,13.41,13.41,0,0,1,35.1,49.2a22.8,22.8,0,0,1-1.69-8.77,19.69,19.69,0,0,1,1.89-8.91,13.22,13.22,0,0,1,5.39-5.79,15.43,15.43,0,0,1,7.72-2,12.71,12.71,0,0,1,8,2.49,13,13,0,0,1,4.54,7l-4.14,1a10.21,10.21,0,0,0-3.22-5.2,8.43,8.43,0,0,0-5.3-1.62,10.09,10.09,0,0,0-6.12,1.82,9.43,9.43,0,0,0-3.46,4.85,20.28,20.28,0,0,0-1,6.29,20.42,20.42,0,0,0,1.19,7.28,9,9,0,0,0,3.69,4.64A10,10,0,0,0,48,53.87a9,9,0,0,0,6-2.11A10.87,10.87,0,0,0,57.33,45.53Z"/></g></g></svg>