<svg xmlns="http://www.w3.org/2000/svg" viewBox="0 0 321.96 24.39"><defs><style>.cls-1{fill:gray;}.cls-2{fill:#2f74b2;}</style></defs><g id="レイヤー_2" data-name="レイヤー 2"><g id="About"><path class="cls-1" d="M207.44,15.14c.05,1.83.1,3.86.21,6.08-.06,1-.08,1.64-.06,2s-.23.31-.7,0a12,12,0,0,1-4.12-2.76c-.62-.57-.65-.73,0-.49a3.54,3.54,0,0,0,2.76.46c.31-.2.44-1.22.44-3,0-.63-.08-1.36-.08-2.22a20.89,20.89,0,0,1-2.63,2.27c-.7.41-1.12.88-1.17,1.35s-.34.73-.89.84a7.35,7.35,0,0,1-4.32.34c-.34-.08-.34-.24.1-.47A21.7,21.7,0,0,1,200,18.09a16,16,0,0,0,3.51-2.48A5.54,5.54,0,0,0,205,14l-.76.16a1.36,1.36,0,0,0-.81.26c-.1.1-.26-.05-.44-.52a10.63,10.63,0,0,1-2.32-5.19c-.1-.49,0-.73.21-.76a2.77,2.77,0,0,0,.91-.2c.91-.16,2.27-.37,4.07-.66V5.5a4,4,0,0,1-.71.08,6.38,6.38,0,0,0-2.79.55c-.39.26-.65-.06-.75-1s-.08-1.3.26-1.3a32.7,32.7,0,0,0,4-.26c0-1.43,0-2.43-.06-3s.29-.73,1.36-.42,1.3.6,1,.88a4.27,4.27,0,0,0-.52,2.27c.86-.15,1.8-.34,2.81-.6.45-.13.89.21,1.33,1.07s.21,1.23-.34,1a4.73,4.73,0,0,0-2.5.15,12,12,0,0,1-1.43.32,10.17,10.17,0,0,0-.05,1.56,12.58,12.58,0,0,1,3.39-.21,4.75,4.75,0,0,1,3.07,1.62c0,.23-.13.49-.52.75s-1.15,1.7-2.22,4.28c0,.23-.15.39-.28.39a2.11,2.11,0,0,1-1-.21,16.09,16.09,0,0,0-1.64,0,14.22,14.22,0,0,0,1.66,1.74,13.53,13.53,0,0,0,2.61,2.09,17,17,0,0,0,3.26,1.4,6.92,6.92,0,0,1,2.5,1.26c.16.23.1.36-.08.39a30.58,30.58,0,0,1-3.62.23c-1.59,0-2.4-.18-2.45-.62a2.22,2.22,0,0,0-.37-1.07,4.46,4.46,0,0,0-1.3-1.33A8.8,8.8,0,0,1,208.61,16,4.09,4.09,0,0,0,207.44,15.14ZM204.31,10c.05,0,.57-.07,1.56-.23V8.29h-.05a9.14,9.14,0,0,0-3.2.7c-.21.34-.13,1,.28,2s.65,1.52.94,1.67a6.12,6.12,0,0,0,2-.18V11.05a8.05,8.05,0,0,0-1,.26c-.36.26-.7.08-.94-.54S203.81,9.91,204.31,10Zm3.34-.47c1.12-.31,1.66-.26,1.61.11a1.63,1.63,0,0,0,0,.91c0,.24-.42.29-1.2.13a3.67,3.67,0,0,1-.6.08,7.41,7.41,0,0,0,0,1.49,5.3,5.3,0,0,0,2.32-.73,7,7,0,0,0,.68-1.75,3.26,3.26,0,0,0,.18-1.49,2.45,2.45,0,0,0-2-.34c-.39.06-.81.08-1.2.14a9.14,9.14,0,0,0,0,1.48A1,1,0,0,0,207.65,9.51Z"/><path class="cls-1" d="M227.14,12.62c-.06,2.29-.11,4.82-.11,7.55.05,1.07-.05,1.59-.23,1.59a4.22,4.22,0,0,1-1.54-.6c-.31-.13-.31-.28,0-.49a1,1,0,0,0,.52-.7c-.05-2.61-.08-5-.05-7.2a6.23,6.23,0,0,0-1.1,1.62,11.77,11.77,0,0,1-3,3.26,1.76,1.76,0,0,1-.59.18c-.21,0-.19-.13.1-.55a30.69,30.69,0,0,0,3-4.64,11.18,11.18,0,0,0,1-2.6c-.06,0-.08,0-.06,0a5.22,5.22,0,0,0-2.44,1.07c-.14.26-.45,0-.87-.91S221.25,9,221.53,9s1.57-.41,4.28-1.22c0-2.19.05-4.09.13-5.71a6,6,0,0,0-.05-.83c-.08-.16.05-.19.52-.13s1,.21,1.38.31.39.21.18.42A1.46,1.46,0,0,0,227.55,3c-.1,1.3-.18,2.76-.23,4.32a.43.43,0,0,0,.21,0c.91-.34,1.41-.42,1.48-.23a4.74,4.74,0,0,0,.11.93q.07.6-.63.84a12.49,12.49,0,0,1-1.25.55,4,4,0,0,0-.05,1,.26.26,0,0,0,.08.05,2.1,2.1,0,0,0,.34.47,2.71,2.71,0,0,0,1.09,1c.21.15.24.49.08.94s-.47.62-.76.41A7.79,7.79,0,0,0,227.14,12.62Zm6.49-2.51a3.3,3.3,0,0,1,2.29,1.1c0,.08-.1.21-.26.31a7.16,7.16,0,0,0-1.2,1.85,1,1,0,0,0-.08.16c.19.05.47.15.89.31s.42.39.23.6l-.36.5-.52.67a.74.74,0,0,0-.16.42,7.44,7.44,0,0,1,1.41-.34c.15,0,.21.18.18.5a1.19,1.19,0,0,1-.63.75,19.17,19.17,0,0,1-3.62,1.41,13.1,13.1,0,0,0-2.34.76c-.32.23-.58.1-.81-.4s-.44-.83-.34-.93.21-.16.47-.21a30.53,30.53,0,0,0,3.36-.84,12.16,12.16,0,0,0,1.1-1.22,8.14,8.14,0,0,0,.39-.89c0-.34-.21-.49-.52-.47a.94.94,0,0,0-.73.39c-.53.84-.86,1.39-1,1.65s-.31.41-.65.28-.5-.36-.34-.8a9.27,9.27,0,0,0,.47-1.54.51.51,0,0,1-.26-.32,4.49,4.49,0,0,1-1-2.16c-.06-.36,0-.57.2-.57a2.61,2.61,0,0,0,.73-.16l1.49-.44A7.49,7.49,0,0,1,233.63,10.11Zm1-.93c-.65.07-1.38.2-2.19.36A10.37,10.37,0,0,0,231,10c-.47.28-.74.34-.79.1s-.21-.44-.34-.73-.2-.36,0-.36a2.27,2.27,0,0,0,.53-.08,12.36,12.36,0,0,1,1.45-.34,8.08,8.08,0,0,1,0-1.3,3.24,3.24,0,0,0-1.67.57c-.31.18-.52,0-.62-.65s-.08-1,.29-1a7.58,7.58,0,0,0,1.77-.31.46.46,0,0,1,.21,0c-.06-2.68.07-4.09.39-4.2a2.89,2.89,0,0,1,1.3.42c.6.37.81.57.6.65-.47.26-.68,1.23-.68,2.87.44,0,1-.1,1.64-.21.32-.08.47.13.47.57a.66.66,0,0,1-.65.76c-.49.16-1,.26-1.46.36a4.32,4.32,0,0,0,0,1.15A14.28,14.28,0,0,1,234.8,8c.1,0,.21.18.34.7S235,9.38,234.62,9.18Zm-2.27,3.46a3.46,3.46,0,0,0,1-.44,1.31,1.31,0,0,0,.13-.5.72.72,0,0,0,0-.41.83.83,0,0,0-.54,0,5.22,5.22,0,0,1-.81.23,2.43,2.43,0,0,0-.89.37.56.56,0,0,0-.08.52c0,.28,0,.44.11.49S231.65,12.88,232.35,12.64Zm8.57-4.12q-.15,4,.16,11.29a8.73,8.73,0,0,0,.18,2.16c.11.55-.1.78-.57.63a13.66,13.66,0,0,1-5.34-3.94c-.47-.68-.45-.86.1-.6,1.88,1.28,3.1,1.8,3.65,1.54.31-.44.42-2.08.34-5-.11-2-.16-4-.13-5.92a7.11,7.11,0,0,0-2.76.76c-.32.15-.58-.11-.76-.78s-.08-1,.39-1,1.64-.24,3.13-.5v-.7c-.05-2.58-.11-4.12-.11-4.67-.15-.81.29-1,1.33-.62s1.44.75,1.25,1-.52,1.67-.7,4.23a.91.91,0,0,0-.05.46,11.51,11.51,0,0,0,2.37-.73c.21-.15.36,0,.5.4a2.49,2.49,0,0,0,.57,1.09.67.67,0,0,1-.13,1,2.2,2.2,0,0,1-1-.13A10.35,10.35,0,0,0,240.92,8.52Zm-4.4,5.11a2.34,2.34,0,0,1-.44-1.77c.21-.86.54-1.12,1-.81a3.14,3.14,0,0,1,.5.58,2.61,2.61,0,0,0,.68.75,8.07,8.07,0,0,1,.65.6c.1.11.08.29,0,.5a.78.78,0,0,1-.86.33c-.39,0-.75,0-1,0S236.6,13.84,236.52,13.63Z"/><path class="cls-1" d="M268.76,17.05a26.39,26.39,0,0,0-8.86-.47c-.37,0-.68.05-.94.08A13,13,0,0,1,258.1,18c-.68.78-.94,1.46-.78,2,0,.28-.16.54-.58.78-2.55,1.38-4.51,2.06-5.89,1.93-.91-.05-1.07-.21-.41-.52a23.88,23.88,0,0,0,4.61-2.87,7.48,7.48,0,0,0,2.37-2.55,39.59,39.59,0,0,0-6.67,1.35c-.26.16-.6-.13-1-.86s-.16-.94.75-.7c2.09-.45,4.54-.86,7.38-1.25a9.24,9.24,0,0,0-.1-1.15c-.21-.34.13-.5,1-.5s1.2.32,1,.86a1.67,1.67,0,0,0-.2.53l.65-.08c1.77-.21,3.46-.32,5-.37a11.22,11.22,0,0,0,2.87-.26c.13,0,.26.08.39.37a1.14,1.14,0,0,0,.5.67c.2.13.26.47.23,1.07S269.1,17.28,268.76,17.05ZM258.18,5.84A37.1,37.1,0,0,0,262.76.5c.08-.34.29-.32.6,0a3.27,3.27,0,0,0,.86.94c.26.21.26.37,0,.47a4.07,4.07,0,0,0-1.43,1.12,14.33,14.33,0,0,1-2.24,2,2.09,2.09,0,0,0-.55.44c.76-.18,1.57-.39,2.37-.65.4-.16.81.13,1.25.94s.29,1.09-.26.91a4.44,4.44,0,0,0-2.34.26L260,7.17a1.49,1.49,0,0,0-.08.36,3.57,3.57,0,0,0-.05,1.07l.78-.15c1.38-.42,2-.37,2,.1a2.31,2.31,0,0,0-.05,1.09c0,.32-.5.4-1.46.19l-1.33.21a6.71,6.71,0,0,0,0,1.43,13.15,13.15,0,0,1,1.67-.18c.86-.11,1.59-.19,2.21-.24.4-.08.68.31.84,1.2s0,1.2-.34,1c-.65-.42-2.21-.47-4.61-.16-1.77.26-2.92.44-3.42.57a9,9,0,0,0-1.61.65c-.32.16-.5.08-.6-.28s-.24-.73-.37-1.2.08-.6.71-.47a20,20,0,0,0,2.84-.31l.75-.19a10.8,10.8,0,0,1,.13-1.48,5.49,5.49,0,0,0-1.79.52c-.42.31-.79.1-1-.63s-.18-1,.39-.91c.11,0,.92-.13,2.51-.39a3.55,3.55,0,0,0-.19-1.35,3.47,3.47,0,0,1-.39,0,5.93,5.93,0,0,0-2.6.65c-.32.26-.58,0-.73-.78s-.13-1.15.15-1.15A32.65,32.65,0,0,0,258.18,5.84ZM253.85,4c-.26-.34-.26-.52,0-.57a5.63,5.63,0,0,0,1.62-.34,25.77,25.77,0,0,1,3.41-.73c.36-.05.36.08.05.36a7.53,7.53,0,0,1-1.67,1.38,15.56,15.56,0,0,0-1.87,1.28c-.24.47-.5.47-.76,0S254.06,4.38,253.85,4Zm6.72,14.18c-.31-.26-.23-.37.24-.42a25,25,0,0,1,6,2.27c.16.08.21.57.21,1.46s-.23,1.43-.49,1.53-.47.13-.63-.13l-.73-.91Z"/><path class="cls-1" d="M274.78,10.53c1.22-.31,3-.68,5.26-1.15.24-.05.52-.1.86-.2,0-.24,0-.55,0-.94V6.91c-.06,0-.08,0-.06,0a4.47,4.47,0,0,0-2.11.71c-.21.28-.49,0-.78-1s-.42-1.33-.13-1.25A24.94,24.94,0,0,0,281,4.85a2.49,2.49,0,0,1,0-.37,18.67,18.67,0,0,0,0-2.76c-.31-.73,0-1,1-.7s1.25.55,1,.88a10.18,10.18,0,0,0-.29,2.58.87.87,0,0,0,.29-.05c1-.31,1.51-.34,1.53-.1s0,.52,0,.94a.81.81,0,0,1-.7.8,9.93,9.93,0,0,1-1.23.42,10.63,10.63,0,0,0-.05,2.35.25.25,0,0,0,.18-.06c.21-.26.42-.52.65-.78a31.16,31.16,0,0,0,2.06-2.71c0-.31.26-.23.86.19s.68.67.52.78a4.31,4.31,0,0,0-1.07,1,10.65,10.65,0,0,1-.88,1c.36-.05.75-.13,1.25-.23.15-.11.31.21.47.94s-.13,1-.68.7c-.91.1-1.82.26-2.68.42a.6.6,0,0,0-.21.23c-.76.76-1.41,1.36-1.91,1.85a9.63,9.63,0,0,1,1.28-.44,8.16,8.16,0,0,1,1.33-.26c1.59.31,2.24.81,2,1.43a7.8,7.8,0,0,0-.31,1.72,12.68,12.68,0,0,0-.1,2.58c0,1.07,0,2.11,0,3.08.06.49-.15.6-.57.34a9.08,9.08,0,0,0-.89-.81,2.92,2.92,0,0,1-.83-.81c-.16-.13-.23-.24-.23-.34a.52.52,0,0,0-.32-.21c-.86.37-1.38.6-1.59.71a2.35,2.35,0,0,0-1.14.36c-.27.18-.47,0-.63-.42a6.57,6.57,0,0,1-.31-2.29c0-.81,0-1.8.08-3a1.71,1.71,0,0,0-.71,1,1.32,1.32,0,0,1-.57.86,6.23,6.23,0,0,1-3.81.84c-.49,0-.44-.26.16-.65a40.06,40.06,0,0,0,3.57-2.09q2-1.8,3.52-3.28l-1.36.31a19.8,19.8,0,0,0-4.06,1.22c-.68.45-1,.53-1.15.19a10.58,10.58,0,0,0-.55-1c-.26-.36-.26-.54,0-.59A2.89,2.89,0,0,0,274.78,10.53Zm6.2,4.28,1.3-.29c.18,0,.29.1.34.52s0,.63-.16.65a7.75,7.75,0,0,0-1.22.34,2.82,2.82,0,0,0-1.1.68,2.19,2.19,0,0,0,0,1.2c0,.05.27,0,.84-.21a7.41,7.41,0,0,1,1.56-.47.53.53,0,0,1,.26.49c-.05.26,0,.45.11.5a1.16,1.16,0,0,0,.75.31,9.58,9.58,0,0,0,0-1.74,18.89,18.89,0,0,1-.13-2.64,1.74,1.74,0,0,0-.31-1.25,1.41,1.41,0,0,0-1,.11,6.28,6.28,0,0,0-1.13.47c-.26.15-.41.28-.41.33a3.46,3.46,0,0,0-.26,1A.48.48,0,0,0,281,14.81Zm6.64,6.28c.06-1.93.08-4.64.08-8.19s-.18-6.07-.36-7.76c-.11-.39,0-.63.21-.68a3.11,3.11,0,0,1,1.14.13,6.44,6.44,0,0,0,2-.57A3.24,3.24,0,0,1,293,3.65c1.33.42,1.8.83,1.43,1.23-1.46,1.38-2.21,2.63-2.16,3.72a2.35,2.35,0,0,0,1.07,1.62A7.88,7.88,0,0,1,295,12.38a4.09,4.09,0,0,1,.39,2.61,6.72,6.72,0,0,1-.42,1.35,2,2,0,0,1-1.09-.41,14.3,14.3,0,0,0-2.61-.86A4.54,4.54,0,0,1,289,13.68a13.6,13.6,0,0,0,0,2c-.05,2.5,0,4.8.11,6.8.1.92-.26,1.2-1.12.79-1-.32-1.31-.6-.86-.86C287.34,22.26,287.52,21.84,287.62,21.09Zm1.75-13.66c-.21,1.88-.34,3.67-.36,5.32a4.23,4.23,0,0,0,4.14.88,3.74,3.74,0,0,0-.86-2.66,6.82,6.82,0,0,1-1.17-2.32,5.57,5.57,0,0,1,.41-1.92,2.21,2.21,0,0,0,.11-1.65,2,2,0,0,0-1.75.32l-.26.13A4.36,4.36,0,0,0,289.37,7.43Z"/><path class="cls-1" d="M301.25,4.93a40.8,40.8,0,0,0,5-.91c1-.32,1.56-.34,1.62-.13s0,.59,0,1a.86.86,0,0,1-.73.86l-1.25.41a18.4,18.4,0,0,0-.39,3.23c.16-.05.34-.07.55-.13.86-.31,1.3-.39,1.35-.18a7.32,7.32,0,0,0,.08.86c0,.34-.15.6-.57.76a16.23,16.23,0,0,1-1.57.6c-.1,2,0,3.12.34,3.41a17.82,17.82,0,0,1,2.48-1c.1,0,.16.08.18.31a.63.63,0,0,1-.34.58,25.44,25.44,0,0,1-3.7,2.55,14.15,14.15,0,0,0-2.45,1.54c-.34.34-.75.21-1.2-.39s-.75-1-.67-1.18.18-.28.6-.39c1-.31,2-.7,3-1.12a22.65,22.65,0,0,0,.39-3.93c-.72.21-1.12.41-1.22.62s-.5,0-.81-.88-.41-1.2-.15-1.15A20.64,20.64,0,0,0,304,9.78a12.73,12.73,0,0,0-.33-3.08,3.62,3.62,0,0,0-1.46.63c-.21.31-.47,0-.84-1S300.91,4.82,301.25,4.93Zm13.5,15.45a34.7,34.7,0,0,0-6.88,1c-.26.15-.57-.16-1-.94s-.15-1,.76-.71c1.59-.31,3.41-.62,5.5-.91a2.9,2.9,0,0,0,.15-1.07v-2l-.47,0a4.79,4.79,0,0,0-2.26.5c-.34.23-.58-.06-.68-.81s-.08-1.15.23-1.15a30.29,30.29,0,0,0,3.18-.28v-3a6.72,6.72,0,0,0-2.19.75c-.36.11-.57-.1-.65-.6a19.77,19.77,0,0,1-1.67-6.85c-.2-.47-.18-.68.11-.73A4.58,4.58,0,0,0,310,3.16a34.56,34.56,0,0,1,3.72-.58c2.58-.41,4.28-.47,5-.15,1.93.62,2.69,1.25,2.35,1.92a8.45,8.45,0,0,0-1.2,2.79,36,36,0,0,1-1.46,4.22c-.26.58-.42.84-.52.73a6.61,6.61,0,0,1-1.44-1c-.7-.47-1.22-.65-1.53-.55-.06.78-.08,1.8-.08,3.08.73-.13,1.46-.26,2.21-.47.42-.16.81.18,1.18,1s.26,1.12-.26.91a4,4,0,0,0-2.06.13c-.42.11-.81.18-1.12.24a15.89,15.89,0,0,0-.06,2,4.72,4.72,0,0,0,.13,1.12c1.28-.13,2.53-.2,3.76-.23a6.83,6.83,0,0,0,2.14-.18c.15-.05.28.1.41.41a1.2,1.2,0,0,0,.47.68c.21.16.29.55.24,1.12s-.26.81-.6.6A19.35,19.35,0,0,0,314.75,20.38ZM311.13,4.75a9.59,9.59,0,0,0,0,5.16c.1.2.57.18,1.51-.11a4.74,4.74,0,0,0,.65-.21v-2a10.32,10.32,0,0,1-1.12.26c-.26.13-.47,0-.55-.6s-.05-.8.29-.86l1.38-.31c0-.78,0-1.28,0-1.46a2.23,2.23,0,0,0-.24-.73,9.56,9.56,0,0,0-1,.29C311.47,4.41,311.16,4.61,311.13,4.75ZM318,3.81c-.31-.34-1.25-.42-2.79-.24a.91.91,0,0,0-.08.63c0,.55,0,1,0,1.54l.94-.16c.36-.1.57.16.65.7s-.11.84-.32.81c-.44,0-.88.13-1.27.18,0,.73,0,1.41-.05,2l.7-.07a.3.3,0,0,1,.44.26c0,.31.05.52.21.6s.29.05.57-.16A8.37,8.37,0,0,0,318,6.75C318.32,5,318.3,4,318,3.81Z"/><path class="cls-2" d="M7.26,1.47a11.71,11.71,0,0,1,5.55,1.21,8.72,8.72,0,0,1,4.51,8c0,3.8-1.38,6.51-4.08,8a12.5,12.5,0,0,1-5.79,1.09H0V1.47ZM7,18.78a5.68,5.68,0,0,0,4.11-1.32c1.52-1.41,2.23-3.53,2.23-6.73,0-5.61-2-8.29-6.31-8.29H3.7V18.78Z"/><path class="cls-2" d="M22.61,13c0,3.37,1.76,5.71,4.29,5.71a6.06,6.06,0,0,0,4.58-2.1l.64.66a7.79,7.79,0,0,1-5.93,2.66c-4.6,0-7.09-2.41-7.09-6.9,0-4.2,2.65-6.88,6.83-6.88a6.68,6.68,0,0,1,5.29,2.15,6.49,6.49,0,0,1,1.43,4.34h-10Zm6.29-1.34c0-2.78-1.21-4.53-3-4.53s-3.06,1.68-3.23,4.53Z"/><path class="cls-2" d="M44,8.93A6,6,0,0,0,40,7.1c-1.66,0-2.75.73-2.75,1.88s.67,1.6,2.87,2.34c4.06,1.34,5.25,2.41,5.25,4.7,0,2.61-2,3.88-6,3.88a11,11,0,0,1-5.7-1.44L34.42,17a7.2,7.2,0,0,0,4.63,1.9c2,0,3.11-.71,3.11-2s-.9-1.8-3.82-2.76S34.28,12.05,34.28,10c0-2.51,2-3.9,5.46-3.9a9.07,9.07,0,0,1,5,1.37Z"/><path class="cls-2" d="M52.1,2.39a2,2,0,1,1-2-2A2,2,0,0,1,52.1,2.39ZM48.42,19.75V6.34h3.42V19.75Z"/><path class="cls-2" d="M68.8,17.8c0,2.37-.38,3.66-1.4,4.71-1.23,1.29-3.3,1.88-6.48,1.88a26.12,26.12,0,0,1-4.6-.44v-1.3a11.92,11.92,0,0,0,4.46.74c3.11,0,4.65-1.59,4.65-4.78v-1a4.58,4.58,0,0,1-4.29,2.29c-3.89,0-6.2-2.56-6.2-6.88a7.55,7.55,0,0,1,1.12-4.19,6.06,6.06,0,0,1,5-2.71,4.59,4.59,0,0,1,4.32,2.37V6.34H68.8ZM58.5,13c0,3.66,1.31,5.93,3.42,5.93s3.51-2.61,3.51-6.12C65.43,9.44,64,7.1,62,7.1S58.5,9.39,58.5,13Z"/><path class="cls-2" d="M81.23,19.75V11.61A9.24,9.24,0,0,0,81,9.15,2.43,2.43,0,0,0,78.57,7.1c-1.87,0-3.27,1.75-3.27,4.09v8.56H71.88V6.34H75.3V8a5.15,5.15,0,0,1,4.15-1.83c3.42,0,5.2,1.78,5.2,5.22v8.36Z"/><path class="cls-2" d="M108.47,5.27a5.69,5.69,0,0,0-4.82-3.1c-3.49,0-5.79,3.44-5.79,8.66,0,4.56,2.66,8,6.22,8a7.24,7.24,0,0,0,5.38-2.27l.67,1a8.58,8.58,0,0,1-6.41,2.56c-6.26,0-10-3.37-10-9,0-6,3.72-9.8,9.7-9.8a10.22,10.22,0,0,1,6.64,2.17Z"/><path class="cls-2" d="M112.69,19.75V6.34H116v4.49c.71-2.85,2.59-4.63,4.91-4.63a5.18,5.18,0,0,1,1.14.12l-.36,3.17a3.82,3.82,0,0,0-1.11-.15c-2.71,0-4.58,1.39-4.58,3.39v7Z"/><path class="cls-2" d="M125.71,13c0,3.37,1.76,5.71,4.3,5.71a6.08,6.08,0,0,0,4.58-2.1l.64.66a7.83,7.83,0,0,1-5.94,2.66c-4.6,0-7.09-2.41-7.09-6.9,0-4.2,2.66-6.88,6.83-6.88a6.72,6.72,0,0,1,5.3,2.15,6.54,6.54,0,0,1,1.42,4.34h-10ZM132,11.63c-.05-2.78-1.21-4.53-3-4.53s-3.06,1.68-3.23,4.53Z"/><path class="cls-2" d="M146.57,18.14a6.94,6.94,0,0,1-4.8,1.76c-2.89,0-4.62-1.41-4.62-3.83,0-2.58,1.92-4,6.09-4.58,1.48-.2,2.76-.42,3.3-.54a5.75,5.75,0,0,0-.24-1.9,2.78,2.78,0,0,0-2.84-2.12A6.28,6.28,0,0,0,139,9.39l-.88-1.83A11.84,11.84,0,0,1,143.79,6c2.51,0,4.22.56,5.17,1.68.71.85,1,1.92,1,3.92v8.12h-3.39Zm-.5-6.17-.88.15c-2.42.44-2.42.44-3,.73a2.73,2.73,0,0,0-1.52,2.64,2.56,2.56,0,0,0,2.82,2.68,4.27,4.27,0,0,0,3.07-1.12V11.88Z"/><path class="cls-2" d="M157,15.68c0,1.66.1,2.2.43,2.63s.76.59,1.73.59a6.54,6.54,0,0,0,1-.07v.87a9.79,9.79,0,0,1-2.16.2c-3,0-4-.59-4.34-2.59a15,15,0,0,1-.1-1.63V7.32h-2.51v-1h2.51V1.1H157V6.34h3.18v1H157Z"/><path class="cls-2" d="M164.48,13c0,3.37,1.75,5.71,4.29,5.71a6.06,6.06,0,0,0,4.58-2.1l.64.66a7.83,7.83,0,0,1-5.93,2.66c-4.6,0-7.1-2.41-7.1-6.9,0-4.2,2.66-6.88,6.84-6.88a6.7,6.7,0,0,1,5.29,2.15,6.43,6.43,0,0,1,1.42,4.34h-10Zm6.28-1.34c0-2.78-1.21-4.53-3-4.53s-3.07,1.68-3.23,4.53Z"/></g></g></svg>